<?xml version="1.0" encoding="UTF-8" standalone="no"?><!DOCTYPE svg PUBLIC "-//W3C//DTD SVG 1.1//EN" "http://www.w3.org/Graphics/SVG/1.1/DTD/svg11.dtd"><svg width="100%" height="100%" viewBox="0 0 128 128" version="1.1" xmlns="http://www.w3.org/2000/svg" xmlns:xlink="http://www.w3.org/1999/xlink" xml:space="preserve" xmlns:serif="http://www.serif.com/" style="fill-rule:evenodd;clip-rule:evenodd;stroke-linejoin:round;stroke-miterlimit:2;"><path d="M29.2,14.009L29.2,10L34.532,10L34.532,14.009L37.218,14.009L37.218,18.018L39.905,18.018L39.905,22.028L42.551,22.028L42.551,26.037L45.237,26.037L45.237,30.046L47.923,30.046L47.923,34.055L50.569,34.055L50.569,38.065L45.237,38.065L45.237,34.055L42.551,34.055L42.551,30.046L39.905,30.046L39.905,26.037L37.218,26.037L37.218,22.028L34.532,22.028L34.532,18.018L31.886,18.018L31.886,14.009L29.2,14.009ZM77.311,38.065L77.311,34.055L79.997,34.055L79.997,30.046L82.643,30.046L82.643,26.037L85.329,26.037L85.329,22.028L88.015,22.028L88.015,18.018L90.661,18.018L90.661,14.009L93.347,14.009L93.347,10L98.68,10L98.68,14.009L96.034,14.009L96.034,18.018L93.347,18.018L93.347,22.028L90.661,22.028L90.661,26.037L88.015,26.037L88.015,30.046L85.329,30.046L85.329,34.055L82.643,34.055L82.643,38.065L77.311,38.065ZM29.2,118.065L29.2,114.055L31.886,114.055L31.886,110.046L34.532,110.046L34.532,106.037L37.218,106.037L37.218,102.028L39.905,102.028L39.905,98.018L42.551,98.018L42.551,94.009L45.237,94.009L45.237,90L50.569,90L50.569,94.009L47.923,94.009L47.923,98.018L45.237,98.018L45.237,102.028L42.551,102.028L42.551,106.037L39.905,106.037L39.905,110.046L37.218,110.046L37.218,114.055L34.532,114.055L34.532,118.065L29.2,118.065ZM77.311,94.009L77.311,90L82.643,90L82.643,94.009L85.329,94.009L85.329,98.018L88.015,98.018L88.015,102.028L90.661,102.028L90.661,106.037L93.347,106.037L93.347,110.046L96.034,110.046L96.034,114.055L98.68,114.055L98.68,118.065L93.347,118.065L93.347,114.055L90.661,114.055L90.661,110.046L88.015,110.046L88.015,106.037L85.329,106.037L85.329,102.028L82.643,102.028L82.643,98.018L79.997,98.018L79.997,94.009L77.311,94.009ZM57.3,68L57.3,60L59.98,60L59.98,56L67.98,56L67.98,60L70.66,60L70.66,68L67.98,68L67.98,72L59.98,72L59.98,68L57.3,68Z" style="fill:white;"/></svg>