<?xml version="1.0" encoding="UTF-8" standalone="no"?>
<!DOCTYPE svg PUBLIC "-//W3C//DTD SVG 1.1//EN" "http://www.w3.org/Graphics/SVG/1.1/DTD/svg11.dtd">
<svg width="100%" height="100%" viewBox="0 0 128 128" version="1.1" xmlns="http://www.w3.org/2000/svg" xmlns:xlink="http://www.w3.org/1999/xlink" xml:space="preserve" xmlns:serif="http://www.serif.com/" style="fill-rule:evenodd;clip-rule:evenodd;stroke-linecap:round;stroke-linejoin:round;stroke-miterlimit:1.5;">
    <g transform="matrix(1,0,0,1,-172,-161)">
        <g id="Retrograde" transform="matrix(0.948148,0,0,1.28,-210.104,114.92)">
            <rect x="403" y="36" width="135" height="100" style="fill:none;"/>
            <g transform="matrix(1.13416,0,0,1.13416,-62.4433,-14.9483)">
                <g transform="matrix(6.4581e-17,0.78125,-1.05469,4.78378e-17,469.234,88.3438)">
                    <circle cx="0" cy="0" r="22.5" style="fill:none;stroke:white;stroke-width:4.41px;"/>
                </g>
                <g transform="matrix(0.904297,-0.402061,0.814174,1.00477,266.38,-46.8873)">
                    <rect x="31" y="163" width="21" height="4" style="fill:white;"/>
                </g>
                <g transform="matrix(0.903793,0.402682,-0.81543,1.00421,597.665,-80.1705)">
                    <rect x="31" y="163" width="21" height="4" style="fill:white;"/>
                </g>
                <g transform="matrix(6.4581e-17,-0.78125,1.58203,7.17566e-17,208.41,93.8125)">
                    <rect x="31" y="163" width="21" height="4" style="fill:white;"/>
                </g>
                <g transform="matrix(6.4581e-17,0.78125,-1.05469,4.78378e-17,469.445,89.125)">
                    <circle cx="0" cy="0" r="3" style="fill:white;"/>
                </g>
                <g transform="matrix(1.05469,0,0,0.78125,295.422,-41.3438)">
                    <path d="M180.229,182.37L148.427,150.568" style="fill:none;stroke:white;stroke-width:2.3px;"/>
                </g>
                <g transform="matrix(1.05469,0,0,0.78125,295.422,-41.3438)">
                    <path d="M149.371,182.37L181.163,150.578" style="fill:none;stroke:white;stroke-width:2.3px;"/>
                </g>
            </g>
        </g>
    </g>
</svg>
